<?xml version="1.0" standalone="no"?><!DOCTYPE svg PUBLIC "-//W3C//DTD SVG 1.1//EN" "http://www.w3.org/Graphics/SVG/1.1/DTD/svg11.dtd"><svg width="128" height="128" t="1656697979214" class="icon" viewBox="0 0 1024 1024" version="1.1" xmlns="http://www.w3.org/2000/svg" p-id="7382" xmlns:xlink="http://www.w3.org/1999/xlink" width="200" height="200"><defs><style type="text/css">@font-face { font-family: feedback-iconfont; src: url("//at.alicdn.com/t/font_1031158_u69w8yhxdu.woff2?t=1630033759944") format("woff2"), url("//at.alicdn.com/t/font_1031158_u69w8yhxdu.woff?t=1630033759944") format("woff"), url("//at.alicdn.com/t/font_1031158_u69w8yhxdu.ttf?t=1630033759944") format("truetype"); }
</style></defs><path d="M512 803.40992c12.32896 0 268.928-385.99168 268.928-534.48192C780.928 120.43776 660.49024 0 512 0 363.50976 0 243.072 120.43776 243.072 268.928 243.072 417.41824 499.67104 803.40992 512 803.40992zM384.8704 268.928c0-70.1952 56.9344-127.1296 127.1296-127.1296 70.20032 0 127.1296 56.9344 127.1296 127.1296 0 70.20032-56.9344 127.1296-127.1296 127.1296C441.8048 396.0576 384.8704 339.12832 384.8704 268.928z" p-id="7383" fill="#BFCBD9"></path><path d="M706.39104 736.66048 706.39104 736.66048c58.48064 19.67104 95.22176 48.08704 95.22176 79.68768 0 59.38688-129.69984 107.5456-289.6128 107.5456-159.91296 0-289.6128-48.1536-289.6128-107.5456 0-31.60064 36.74112-60.01152 95.22176-79.68768-119.11168 26.42944-199.4752 76.38528-199.4752 133.6576C118.13376 955.17696 294.528 1024 512 1024c217.472 0 393.86624-68.82304 393.86624-153.68704C905.86624 813.04576 825.50272 763.08992 706.39104 736.66048z" p-id="7384" fill="#BFCBD9"></path></svg>
