<?xml version="1.0" standalone="no"?><!DOCTYPE svg PUBLIC "-//W3C//DTD SVG 1.1//EN" "http://www.w3.org/Graphics/SVG/1.1/DTD/svg11.dtd"><svg width="130" height="130" t="1656698203679" class="icon" viewBox="0 0 1024 1024" version="1.1" xmlns="http://www.w3.org/2000/svg" p-id="10434" xmlns:xlink="http://www.w3.org/1999/xlink" width="200" height="200"><defs><style type="text/css">@font-face { font-family: feedback-iconfont; src: url("//at.alicdn.com/t/font_1031158_u69w8yhxdu.woff2?t=1630033759944") format("woff2"), url("//at.alicdn.com/t/font_1031158_u69w8yhxdu.woff?t=1630033759944") format("woff"), url("//at.alicdn.com/t/font_1031158_u69w8yhxdu.ttf?t=1630033759944") format("truetype"); }
</style></defs><path d="M474.84 867.61H232.58c-25.08 0-45.48-20.4-45.48-45.48V200.35c0-25.08 20.4-45.48 45.48-45.48h484.54c25.06 0 45.46 20.4 45.46 45.48v387.1c0 24.6 19.95 44.55 44.55 44.55 24.6 0 44.55-19.95 44.55-44.55v-387.1c0-74.2-60.36-134.57-134.55-134.57H232.58C158.36 65.78 98 126.15 98 200.35v621.77c0 74.21 60.36 134.57 134.57 134.57h242.26c24.6 0 44.55-19.95 44.55-44.55 0-24.59-19.94-44.53-44.54-44.53z" fill="#BFCBD9" p-id="10435"></path><path d="M592.88 510.24c24.6 0 44.55-19.95 44.55-44.55 0-24.6-19.95-44.55-44.55-44.55h-21.62l43.09-43.09c17.4-17.4 17.4-45.59 0-62.99s-45.59-17.4-62.99 0L474 392.43l-75.68-75.66c-17.4-17.4-45.59-17.4-62.99 0s-17.4 45.61 0 62.99l41.4 41.39h-19.91c-24.6 0-44.55 19.95-44.55 44.55 0 24.6 19.95 44.55 44.55 44.55h73.47v46.2h-73.47c-24.6 0-44.55 19.95-44.55 44.55 0 24.6 19.95 44.55 44.55 44.55h73.47v43.13c0 24.6 19.95 44.55 44.55 44.55 24.6 0 44.55-19.95 44.55-44.55v-43.13h73.5c24.6 0 44.55-19.95 44.55-44.55 0-24.6-19.95-44.55-44.55-44.55h-73.5v-46.2h73.49zM912.95 685.92c-17.4-17.4-45.59-17.4-62.99 0L685.17 850.68l-93.46-93.44c-17.4-17.4-45.59-17.4-62.99 0s-17.4 45.61 0 62.99l124.96 124.94c8.7 8.7 20.1 13.05 31.5 13.05s22.79-4.35 31.5-13.05l196.28-196.26c17.39-17.4 17.39-45.59-0.01-62.99z" fill="#BFCBD9" p-id="10436"></path></svg>
